<?xml version="1.0" standalone="no"?><!-- Generator: Adobe Fireworks CS6, Export SVG Extension by Aaron Beall (http://fireworks.abeall.com) . Version: 0.6.1  --><!DOCTYPE svg PUBLIC "-//W3C//DTD SVG 1.1//EN" "http://www.w3.org/Graphics/SVG/1.1/DTD/svg11.dtd"><svg id="Untitled-Page%201" viewBox="0 0 71 76" style="background-color:#ffffff00" version="1.1"	xmlns="http://www.w3.org/2000/svg" xmlns:xlink="http://www.w3.org/1999/xlink" xml:space="preserve"	x="0px" y="0px" width="71px" height="76px">	<g id="Layer%201">		<g>			<path id="Ellipse" d="M 0 40.5 C 0 20.8936 15.8936 5 35.5 5 C 55.1064 5 71 20.8936 71 40.5 C 71 60.1064 55.1064 76 35.5 76 C 15.8936 76 0 60.1064 0 40.5 Z" fill="#000000"/>			<path id="Ellipse2" d="M 0 35.5 C 0 15.8936 15.8936 0 35.5 0 C 55.1064 0 71 15.8936 71 35.5 C 71 55.1064 55.1064 71 35.5 71 C 15.8936 71 0 55.1064 0 35.5 Z" fill="#ffffff"/>			<path d="M 44.5 41.4974 L 35.5005 50.5 L 26.5 41.4974 L 26.5 41.4974 " stroke="#000000" stroke-width="1" fill="none"/>			<path d="M 35.5005 50.5 L 35.5005 19.5 L 35.5005 19.5 " stroke="#000000" stroke-width="1" fill="none"/>		</g>	</g></svg>