<?xml version="1.0" standalone="no"?><!-- Generator: Adobe Fireworks CS6, Export SVG Extension by Aaron Beall (http://fireworks.abeall.com) . Version: 0.6.1  --><!DOCTYPE svg PUBLIC "-//W3C//DTD SVG 1.1//EN" "http://www.w3.org/Graphics/SVG/1.1/DTD/svg11.dtd"><svg id="Untitled-Page%201" viewBox="0 0 46 45" style="background-color:#ffffff00" version="1.1"	xmlns="http://www.w3.org/2000/svg" xmlns:xlink="http://www.w3.org/1999/xlink" xml:space="preserve"	x="0px" y="0px" width="46px" height="45px">	<g id="Layer%201">		<path d="M 19.9307 38.858 C 9.2166 38.858 0.5 30.1422 0.5 19.429 C 0.5 8.7158 9.2166 0 19.9307 0 C 30.6449 0 39.3613 8.7158 39.3613 19.429 C 39.3613 30.1422 30.6449 38.858 19.9307 38.858 ZM 19.9307 0.7574 C 9.6343 0.7574 1.2574 9.1334 1.2574 19.429 C 1.2574 29.7246 9.6343 38.1006 19.9307 38.1006 C 30.2273 38.1006 38.604 29.7246 38.604 19.429 C 38.604 9.1334 30.2273 0.7574 19.9307 0.7574 Z" fill="#000101"/>		<path d="M 45.1212 45 C 45.0247 45 44.9277 44.9633 44.8538 44.8895 L 33.1299 33.2012 C 32.9819 33.0536 32.9814 32.8137 33.1292 32.6656 C 33.2769 32.5176 33.5167 32.5171 33.6649 32.6649 L 45.3888 44.353 C 45.5366 44.5007 45.5372 44.7406 45.3895 44.8888 C 45.3156 44.9628 45.2184 45 45.1212 45 Z" fill="#000101"/>	</g></svg>