<svg viewBox="0 0 130 188" style="background-color:#fff" xmlns="http://www.w3.org/2000/svg" width="130" height="188"><path d="M130 188H0V0h130v188z" fill="#fff100"/><path d="M85.554 160.06c1.736-.987 3.302-2.418 3.302-5.861 0-3.442-3.166-7.19-7.794-7.19-.886 0-1.566.68-1.566 1.534v1.021c0 .818.68 1.5 1.531 1.5 2.11 0 3.132 1.772 3.165 3.1.034 1.738-.987 2.728-2.995 3.648l-1.395.646c-.783.376-.954 1.295-.544 2.046l5.275 10.223c.374.75 1.361.989 2.11.613l.85-.442c.75-.41.987-1.295.613-2.046l-3.164-6.303c-.41-.818-1.09-1.535.612-2.49zm-12.868-13.052h-1.019c-.853 0-1.532.682-1.532 1.535v21.502c0 .853.68 1.534 1.532 1.534h1.02c.817 0 1.497-.681 1.497-1.534v-21.502c0-.853-.68-1.535-1.498-1.535zm37.186 1.09c-.238-.816-1.02-1.192-1.77-1.022l-.987.206c-.851.17-1.328 1.055-1.09 1.874l6.094 21.536c.205.819 1.02 1.33 1.804 1.092l.986-.308c.748-.239 1.226-1.057.988-1.84l-6.025-21.537zm-4.63 13.565c-.44-.138-.611-.342-.611-.683-.035-.476-.58-.92-1.09-1.056l-.987-.238c-.85-.204-1.634.238-1.872 1.057l-2.485 8.893c-.237.75.273 1.636 1.056 1.84l.953.273a1.495 1.495 0 0 0 1.837-1.057l1.055-3.748c.238-.988.919-1.465 1.736-1.362l.035.034a1.47 1.47 0 0 0 1.463-1.534v-.99c-.033-.68-.476-1.26-1.09-1.43zm-46.25-14.655h-1.055c-.816 0-1.463.682-1.463 1.535v16.732c0 1.533-1.498 2.555-2.075 3.136-.613.612-.886 1.6-.206 2.314l.647.75c.58.616 1.43.342 2.111-.065 1.804-1.024 3.54-2.49 3.54-5.59v-17.277c0-.853-.647-1.535-1.498-1.535zm-12.864 18.267v-16.732c0-.853-.648-1.535-1.498-1.535h-1.056c-.85 0-1.498.682-1.498 1.535v17.276c.034 3.101 1.77 4.567 3.575 5.59.645.408 1.498.682 2.076.067l.68-.75c.68-.715.409-1.703-.17-2.282-.613-.614-2.11-1.636-2.11-3.17zm45.198-48.444c-.239-.818-1.021-1.194-1.771-1.023l-.987.205c-.85.17-1.326 1.055-1.089 1.874l6.093 21.536c.205.819 1.02 1.331 1.804 1.093l.988-.309c.748-.238 1.225-1.057.986-1.84l-6.024-21.536zm-10.62 23.376l.952.273c.818.204 1.602-.238 1.84-1.057l1.055-3.748c.238-.988.918-1.465 1.734-1.362l.035.035a1.47 1.47 0 0 0 1.463-1.535v-.99c-.034-.68-.477-1.26-1.089-1.43-.442-.137-.612-.34-.612-.68-.033-.478-.58-.92-1.09-1.058l-.987-.238c-.851-.204-1.633.238-1.871 1.057l-2.486 8.894c-.238.749.273 1.636 1.056 1.839zm-15.541-15.334h-1.09c-.817 0-1.498.682-1.498 1.533l.036 12.61c0 .851.68 1.533 1.496 1.533h1.056c.851 0 1.531-.682 1.531-1.533v-12.61c0-.851-.68-1.533-1.531-1.533zm6.841-9.133H57.234c-.818 0-1.498.716-1.498 1.534v1.056c0 .852.68 1.533 1.498 1.533H72.04c.85 0 1.532-.681 1.532-1.533v-1.091c0-.818-.682-1.5-1.566-1.5zm-28.414 24.809h1.055c.85 0 1.532-.682 1.532-1.533v-21.742c0-.853-.683-1.534-1.532-1.534h-1.055c-.852 0-1.533.681-1.533 1.534v21.742c0 .851.681 1.533 1.533 1.533zm5.84-53.929l6.093 21.536c.204.819 1.02 1.33 1.804 1.092l.987-.308c.748-.238 1.225-1.058.987-1.84l-6.026-21.537c-.237-.817-1.02-1.193-1.769-1.022l-.988.205c-.85.169-1.326 1.056-1.087 1.874zm-.784 12.506c-.442-.137-.613-.341-.613-.682-.033-.476-.578-.92-1.087-1.056l-.988-.239c-.85-.203-1.634.239-1.872 1.057l-2.486 8.894c-.238.75.274 1.636 1.056 1.84l.953.274a1.5 1.5 0 0 0 1.839-1.058l1.054-3.748c.239-.988.92-1.466 1.737-1.362l.033.034c.817 0 1.498-.684 1.465-1.534v-.99c-.035-.68-.478-1.26-1.09-1.43zm-24.23 47.712c-.85 0-1.53.681-1.53 1.533v1.057c0 .817.68 1.5 1.53 1.5 2.078 0 3.61 2.18 3.61 3.61v9.34c0 1.431-1.532 3.613-3.61 3.613-.85 0-1.53.68-1.53 1.5v1.055c0 .852.68 1.533 1.53 1.533 4.63 0 8-3.851 8-7.26v-10.222c0-3.408-3.37-7.259-8-7.259zm-8.202.002l-1.054.034c-.886.034-1.566.681-1.566 1.5v21.67c0 .817.68 1.499 1.566 1.533h1.054c.85.035 1.566-.68 1.566-1.532v-21.672c0-.853-.715-1.567-1.566-1.533zm8.203-31.032c-.85 0-1.53.68-1.53 1.532v1.058c0 .817.68 1.5 1.53 1.5 2.077 0 3.608 2.18 3.608 3.61v9.34c0 1.43-1.531 3.612-3.608 3.612-.85 0-1.53.682-1.53 1.5v1.056c0 .851.68 1.533 1.53 1.533 4.63 0 8-3.851 8-7.26v-10.222c0-3.408-3.37-7.259-8-7.259zm-8.203.001l-1.054.035c-.886.033-1.566.68-1.566 1.5v21.67c0 .817.68 1.499 1.566 1.533h1.054c.85.034 1.566-.681 1.566-1.533v-21.67c0-.854-.715-1.568-1.566-1.534zm8.203-31.338c-.85 0-1.53.681-1.53 1.533v1.055c0 .819.68 1.5 1.53 1.5 2.077 0 3.608 2.183 3.608 3.613v9.34c0 1.429-1.531 3.61-3.608 3.61-.85 0-1.53.683-1.53 1.5v1.057c0 .852.68 1.533 1.53 1.533 4.63 0 8-3.851 8-7.26V91.731c0-3.409-3.37-7.26-8-7.26zm-8.203.002l-1.054.034c-.886.034-1.566.681-1.566 1.5v21.67c0 .818.68 1.498 1.566 1.533h1.054c.85.034 1.566-.68 1.566-1.532V86.007c0-.853-.715-1.568-1.566-1.534zM96.962 59.37c.306.58 1.43.784 2.076.274l.817-.648c.613-.444.647-1.123.237-2.078-.475-1.125-1.394-2.181-2.62-3.17-.646-.545-1.464-.75-2.11-.239l-.783.58a1.486 1.486 0 0 0-.272 2.113c1.225.955 1.837 1.568 2.655 3.168zM85.967 71.81c-.306-.58-1.429-.75-2.076-.273l-.783.613c-.68.511-.68 1.159-.271 2.113.475 1.124 1.428 2.18 2.653 3.169.647.546 1.43.818 2.077.306l.783-.647c.647-.51.782-1.466.273-2.112-1.226-.987-1.839-1.568-2.656-3.169zm1.124-6.748c1.666.955 5.649 3.203 6.978 4.056 2.757 2.282 2.688 4.327.781 5.314-1.054.547-.952 1.296-.543 2.012.374.647.85 1.5 2.076 1.09 2.621-.885 4.255-2.997 4.288-5.316.033-2.318-1.973-4.157-3.538-5.861-1.362-1.431-4.22-3.1-7.59-4.567-3.135-1.771-3.406-3.783-1.704-5.044.988-.75.647-1.396.205-2.113-.817-1.294-1.178-1.25-2.282-.715-2.465 1.197-3.675 3.715-3.3 5.998.408 2.283 2.724 3.748 4.629 5.147zM69.355 76.889c.205.818 1.02 1.33 1.804 1.091l.986-.308c.75-.238 1.226-1.057.988-1.839l-6.025-21.538c-.238-.817-1.021-1.193-1.77-1.022l-.986.205c-.852.17-1.329 1.056-1.09 1.874l6.093 21.537zm-11.436-9.95l-2.486 8.894c-.237.75.273 1.635 1.056 1.84l.953.273a1.495 1.495 0 0 0 1.837-1.057l1.055-3.75c.238-.987.92-1.464 1.736-1.361l.035.034a1.47 1.47 0 0 0 1.463-1.534v-.989c-.034-.681-.475-1.26-1.088-1.43-.443-.138-.612-.341-.612-.683-.036-.475-.58-.92-1.09-1.056l-.987-.239c-.85-.203-1.635.24-1.872 1.058zm-14.7 11.075h1.057c.851 0 1.53-.682 1.53-1.534V54.739c0-.853-.679-1.534-1.53-1.534H43.22c-.85 0-1.531.68-1.531 1.534V76.48c0 .851.68 1.532 1.53 1.532zm-13.286-.478l.852-.443c.748-.408.986-1.293.612-2.044l-3.166-6.304c-.409-.819-1.09-1.534.612-2.489 1.736-.987 3.302-2.418 3.302-5.861 0-3.442-3.164-7.19-7.794-7.19-.885 0-1.566.68-1.566 1.534v1.02c0 .82.68 1.5 1.533 1.5 2.11 0 3.13 1.774 3.165 3.101.033 1.739-.987 2.728-2.996 3.647l-1.396.647c-.783.376-.953 1.296-.544 2.047l5.276 10.222c.373.75 1.363.99 2.11.613zM13.425 76.24c0 .853.681 1.535 1.531 1.535h1.022c.817 0 1.498-.682 1.498-1.535V54.738c0-.853-.68-1.534-1.498-1.534h-1.021c-.851 0-1.532.68-1.532 1.534v21.501zm99.616-53.93c-.713-.374-1.566-.647-2.143-.033l-.681.75c-.681.75-.408 1.738.204 2.35.578.58 2.041 1.602 2.041 3.136l.035 11.62c0 1.535-1.463 2.557-2.076 3.17-.612.613-.885 1.602-.204 2.351l.68.75c.578.614 1.431.34 2.144-.067 1.804-1.024 3.54-2.523 3.54-5.659V28.002c0-3.136-1.736-4.635-3.54-5.693zm-5.786-3.36c.84.269 1.086.269 1.848-.817-.051.101-.052.27 1.216-1.808.68-1.09.579-1.295-.136-1.875l-.715-.612c-1.327-.852-1.634-.783-2.28.477-.58 1.057-.749 2.42-.887 2.829-.134.409-.306 1.192.138 1.466.475.271.647.307.816.34zm-5.753 27.42c.717.375 1.567.648 2.145.034l.716-.75c.68-.749.408-1.738-.205-2.351-.612-.578-2.077-1.6-2.077-3.135v-11.62c0-1.535 1.465-2.557 2.077-3.17.578-.613.851-1.6.17-2.351l-.681-.75c-.578-.614-1.428-.34-2.145.068-1.803 1.023-3.54 2.522-3.54 5.658v12.675c0 3.136 1.737 4.635 3.54 5.692zM84.27 30.148V45.21c0 .852.682 1.533 1.532 1.533h1.055c.851 0 1.53-.681 1.53-1.533V23.435c0-.852-.679-1.5-1.53-1.5H85.36c-1.054.17-1.498 1.432-2.246 3.647-.409 1.158-.376 2.044-.033 2.658.306.613 1.19 1.056 1.19 1.908zm-10.517 9.474c0-.853-.682-1.533-1.533-1.533h-1.054c-.85 0-1.532.68-1.532 1.533v5.589c0 .852.681 1.533 1.532 1.533h1.054c.851 0 1.533-.681 1.533-1.533v-5.59zm5.48-8.384l-4.902-8.484c-.407-.751-1.328-1.024-2.043-.58l-.953.51c-2.075 1.226-1.973 2.386-1.19 3.444.783 1.02 2.382 1.668 2.926 2.623l.035.033 2.552 4.465c.41.75 1.329.954 2.043.546l.919-.512a1.465 1.465 0 0 0 .613-2.045zM53.201 46.71h5.343c.851 0 1.531-.682 1.531-1.534v-1.021c0-.853-.68-1.534-1.531-1.534H53.2c-.852 0-1.532.681-1.532 1.534v1.056c0 .817.68 1.5 1.532 1.5zm0-20.686h5.343c.851 0 1.531-.682 1.531-1.533V23.47c0-.854-.68-1.535-1.531-1.535H53.2c-.852 0-1.532.681-1.532 1.535v1.02c0 .852.68 1.534 1.532 1.534zm-9.736 20.72h1.022c.85 0 1.53-.681 1.53-1.533v-7.634c0-.75.614-1.362 1.363-1.362h2.075c.818 0 1.498-.683 1.498-1.533V33.59c0-.852-.68-1.533-1.53-1.533H47.38a1.367 1.367 0 0 1-1.362-1.364v-7.258c0-.819-.68-1.5-1.531-1.5H43.43c-.85 0-1.532.681-1.532 1.5v21.776c0 .852.681 1.533 1.566 1.533zM28.062 30.148V45.21c0 .852.68 1.533 1.53 1.533h1.057c.85 0 1.53-.681 1.53-1.533V23.435c0-.852-.68-1.5-1.53-1.5H29.15c-1.054.17-1.498 1.432-2.246 3.647-.41 1.158-.374 2.044-.035 2.658.306.613 1.192 1.056 1.192 1.908zm-5.038 1.09l-4.901-8.484c-.409-.751-1.328-1.024-2.042-.58l-.954.51c-2.075 1.226-1.973 2.386-1.192 3.444.783 1.02 2.383 1.668 2.928 2.623l.033.033 2.554 4.465c.409.75 1.327.954 2.042.546l.92-.512a1.465 1.465 0 0 0 .612-2.045zM13.448 45.21v-5.59c0-.852.681-1.532 1.533-1.532h1.055c.85 0 1.53.68 1.53 1.533v5.589c0 .852-.68 1.533-1.53 1.533H14.98a1.526 1.526 0 0 1-1.533-1.533z"/></svg>