<?xml version="1.0" standalone="no"?><!-- Generator: Adobe Fireworks CS6, Export SVG Extension by Aaron Beall (http://fireworks.abeall.com) . Version: 0.6.1  --><!DOCTYPE svg PUBLIC "-//W3C//DTD SVG 1.1//EN" "http://www.w3.org/Graphics/SVG/1.1/DTD/svg11.dtd"><svg id="Untitled-Page%201" viewBox="0 0 15 10" style="background-color:#ffffff00" version="1.1"	xmlns="http://www.w3.org/2000/svg" xmlns:xlink="http://www.w3.org/1999/xlink" xml:space="preserve"	x="0px" y="0px" width="15px" height="10px">	<defs>			<clipPath id="mask1">				<path d="M 0.3665 0.4229 L 0.3665 9.5762 L 15.5871 9.5762 L 15.5871 0.4229 L 0.3665 0.4229 Z" fill="none"/>			</clipPath>			<clipPath id="mask2">				<path d="M 0.3665 0.4229 L 0.3665 9.5762 L 15.5871 9.5762 L 15.5871 0.4229 L 0.3665 0.4229 Z" fill="none"/>			</clipPath>	</defs>	<g id="Layer%201">		<g>				<path d="M 0.3665 0.4229 L 0.3665 9.5762 L 15.5871 9.5762 L 15.5871 0.4229 L 0.3665 0.4229 Z" fill="none"/>			<path clip-path="url(#mask1)" d="M 5.0663 9 L 1 4.9995 L 5.0663 1 L 5.0663 1 " stroke="#000000" stroke-width="1" fill="none"/>			<path d="M 1 5.0005 L 15 5.0005 L 1 5.0005 Z" fill="#ffffff"/>				<path d="M 0.3665 0.4229 L 0.3665 9.5762 L 15.5871 9.5762 L 15.5871 0.4229 L 0.3665 0.4229 Z" fill="none"/>			<path clip-path="url(#mask2)" d="M 1 4.9995 L 15 4.9995 L 15 4.9995 " stroke="#000000" stroke-width="1" fill="none"/>		</g>	</g></svg>