<?xml version="1.0" encoding="UTF-8" standalone="no"?>
<!-- Generator: Adobe Fireworks CS6, Export SVG Extension by Aaron Beall (http://fireworks.abeall.com) . Version: 0.6.1  -->
<!DOCTYPE svg  PUBLIC '-//W3C//DTD SVG 1.1//EN'  'http://www.w3.org/Graphics/SVG/1.1/DTD/svg11.dtd'>
<svg id="Untitled-Page%201" style="background-color:#ffffff00" xmlns="http://www.w3.org/2000/svg" xml:space="preserve" height="15px" width="264px" version="1.1" y="0px" x="0px" xmlns:xlink="http://www.w3.org/1999/xlink" viewBox="0 0 264 15">
	<g id="Layer%201">
		<g fill="#fff">
			<path d="m251.39 8.124c0.69-0.3994 1.32-0.9775 1.32-2.3691s-1.27-2.9072-3.12-2.9072c-0.35 0-0.63 0.2753-0.63 0.6206v0.4126c0 0.331 0.28 0.6064 0.62 0.6064 0.84 0 1.25 0.7168 1.26 1.2534 0.02 0.7027-0.39 1.1026-1.2 1.4741l-0.55 0.2618c-0.32 0.1518-0.39 0.5234-0.22 0.8271l2.11 4.1323c0.15 0.303 0.54 0.4 0.84 0.248l0.34-0.179c0.3-0.165 0.4-0.523 0.25-0.826l-1.27-2.5491c-0.16-0.3306-0.43-0.6201 0.25-1.0059zm-5.15-5.2763h-0.41c-0.34 0-0.61 0.2753-0.61 0.6206v8.6917c0 0.345 0.27 0.621 0.61 0.621h0.41c0.33 0 0.6-0.276 0.6-0.621v-8.6917c0-0.3453-0.27-0.6206-0.6-0.6206zm14.87 0.4409c-0.09-0.3306-0.4-0.482-0.7-0.4136l-0.4 0.083c-0.34 0.0689-0.53 0.4268-0.43 0.7578l2.43 8.7062c0.08 0.331 0.41 0.538 0.72 0.442l0.4-0.125c0.3-0.096 0.49-0.427 0.39-0.744l-2.41-8.7064zm-1.85 5.4834c-0.17-0.0557-0.24-0.1382-0.24-0.2759-0.02-0.1924-0.23-0.3721-0.44-0.4268l-0.39-0.0966c-0.34-0.0826-0.66 0.0966-0.75 0.4277l-1 3.5946c-0.09 0.303 0.11 0.661 0.43 0.744l0.38 0.111c0.32 0.082 0.64-0.097 0.73-0.428l0.42-1.515c0.1-0.399 0.37-0.593 0.7-0.551l0.01 0.014c0.33 0 0.6-0.276 0.59-0.62v-0.3999c-0.02-0.2759-0.19-0.5103-0.44-0.5781zm-18.5-5.9243h-0.42c-0.33 0-0.58 0.2753-0.58 0.6206v6.7637c0 0.62-0.6 1.033-0.84 1.268-0.24 0.248-0.35 0.647-0.08 0.936l0.26 0.303c0.23 0.248 0.57 0.138 0.85-0.027 0.72-0.414 1.41-1.006 1.41-2.26v-6.9837c0-0.3453-0.26-0.6206-0.6-0.6206zm-5.14 7.3843v-6.7637c0-0.3453-0.26-0.6206-0.6-0.6206h-0.43c-0.34 0-0.59 0.2753-0.59 0.6206v6.9837c0.01 1.254 0.7 1.846 1.43 2.26 0.25 0.165 0.59 0.275 0.83 0.027l0.27-0.303c0.27-0.289 0.16-0.688-0.07-0.923-0.24-0.248-0.84-0.661-0.84-1.281zm-18.09-7.0025c-0.1-0.3306-0.41-0.4824-0.71-0.4131l-0.39 0.0825c-0.34 0.0684-0.53 0.4268-0.44 0.7574l2.44 8.7057c0.08 0.331 0.41 0.538 0.72 0.442l0.4-0.124c0.29-0.097 0.49-0.428 0.39-0.744l-2.41-8.7065zm-4.25 9.4505l0.38 0.11c0.33 0.082 0.64-0.097 0.74-0.428l0.42-1.514c0.1-0.4 0.37-0.593 0.69-0.551l0.02 0.013c0.33 0 0.6-0.275 0.58-0.6196v-0.3999c-0.01-0.2754-0.19-0.5097-0.43-0.5781-0.18-0.0557-0.25-0.1382-0.25-0.2754-0.01-0.1929-0.23-0.3721-0.43-0.4272l-0.4-0.0967c-0.34-0.0825-0.65 0.0967-0.75 0.4277l-0.99 3.5952c-0.1 0.303 0.11 0.661 0.42 0.744zm-6.21-6.1995h-0.44c-0.33 0-0.6 0.2754-0.6 0.6201l0.02 5.0974c0 0.344 0.27 0.619 0.59 0.619h0.43c0.34 0 0.61-0.275 0.61-0.619v-5.0974c0-0.3447-0.27-0.6201-0.61-0.6201zm2.73-3.6924h-5.91c-0.32 0-0.6 0.29-0.6 0.6206v0.4267c0 0.3443 0.28 0.6197 0.6 0.6197h5.93c0.34 0 0.61-0.2754 0.61-0.6197v-0.4267-0.0142c0-0.331-0.27-0.6064-0.63-0.6064zm-11.36 10.029h0.42c0.34 0 0.61-0.275 0.61-0.619v-8.7893c0-0.3452-0.27-0.6206-0.61-0.6206h-0.42c-0.34 0-0.62 0.2754-0.62 0.6206v8.7893c0 0.344 0.28 0.619 0.62 0.619zm-26.67-8.8004l2.44 8.7064c0.08 0.331 0.41 0.538 0.72 0.441l0.4-0.124c0.3-0.097 0.49-0.428 0.39-0.744l-2.41-8.7066c-0.09-0.3306-0.41-0.4825-0.71-0.4136l-0.39 0.083c-0.34 0.0683-0.53 0.4267-0.44 0.7578zm-0.31 5.0557c-0.18-0.0557-0.25-0.1377-0.25-0.2759-0.01-0.1924-0.23-0.3716-0.43-0.4268l-0.4-0.0962c-0.34-0.0825-0.65 0.0962-0.74 0.4268l-1 3.5958c-0.09 0.303 0.11 0.661 0.42 0.744l0.38 0.11c0.33 0.082 0.64-0.096 0.74-0.427l0.42-1.516c0.1-0.399 0.37-0.592 0.7-0.55l0.01 0.014c0.33 0 0.6-0.277 0.59-0.621v-0.3996c-0.02-0.2754-0.2-0.5098-0.44-0.5781zm55.47-6.293c-0.34 0-0.61 0.2749-0.61 0.6191v0.4278c0 0.3301 0.27 0.6059 0.61 0.6059 0.83 0 1.45 0.8819 1.45 1.46v3.7754c0 0.5785-0.62 1.4605-1.45 1.4605-0.34 0-0.61 0.275-0.61 0.606v0.427c0 0.344 0.27 0.62 0.61 0.62 1.85 0 3.2-1.557 3.2-2.9353v-4.1318c0-1.378-1.35-2.9346-3.2-2.9346zm-3.28 0.0005l-0.42 0.0141c-0.35 0.0132-0.63 0.2749-0.63 0.6055v8.7606c0 0.331 0.28 0.606 0.63 0.62h0.42c0.34 0.014 0.63-0.275 0.63-0.62v-8.7606c0-0.3447-0.29-0.6338-0.63-0.6196zm-32.88 0.0366c-0.34 0-0.61 0.2749-0.61 0.6191v0.4278c0 0.3301 0.27 0.6059 0.61 0.6059 0.83 0 1.44 0.8814 1.44 1.4595v3.7754c0 0.5789-0.61 1.4609-1.44 1.4609-0.34 0-0.61 0.275-0.61 0.606v0.427c0 0.344 0.27 0.619 0.61 0.619 1.85 0 3.2-1.556 3.2-2.9342v-4.1323c0-1.3779-1.35-2.9341-3.2-2.9341zm-3.28 0l-0.43 0.0142c-0.35 0.0132-0.62 0.2749-0.62 0.6059v8.7605c0 0.33 0.27 0.606 0.62 0.62h0.43c0.34 0.013 0.62-0.275 0.62-0.62v-8.7605c0-0.3447-0.28-0.6338-0.62-0.6201zm-25.72 0.3311c-0.34 0-0.61 0.2758-0.61 0.6201v0.4267c0 0.3311 0.27 0.6065 0.61 0.6065 0.83 0 1.44 0.8818 1.44 1.4599v3.7753c0 0.578-0.61 1.46-1.44 1.46-0.34 0-0.61 0.276-0.61 0.606v0.428c0 0.344 0.27 0.619 0.61 0.619 1.85 0 3.2-1.556 3.2-2.934v-4.1325c0-1.3779-1.35-2.935-3.2-2.935zm-3.28 0.0009l-0.43 0.0142c-0.35 0.0132-0.62 0.2749-0.62 0.606v8.7604c0 0.33 0.27 0.606 0.62 0.619h0.43c0.34 0.014 0.62-0.274 0.62-0.619v-8.7604c0-0.3448-0.28-0.6338-0.62-0.6202zm-12.71 2.8526c0.13 0.2348 0.58 0.3174 0.84 0.1103l0.32-0.2617c0.25-0.1792 0.26-0.4541 0.1-0.8398-0.19-0.4546-0.56-0.8819-1.05-1.2813-0.26-0.2207-0.59-0.3037-0.85-0.0967l-0.31 0.2344c-0.27 0.2066-0.31 0.5923-0.11 0.8545 0.49 0.3857 0.74 0.6333 1.06 1.2803zm-4.39 5.029c-0.13-0.234-0.57-0.303-0.83-0.11l-0.32 0.248c-0.27 0.206-0.27 0.468-0.11 0.854 0.19 0.454 0.58 0.881 1.07 1.281 0.25 0.22 0.57 0.331 0.83 0.124l0.31-0.262c0.26-0.207 0.31-0.593 0.11-0.854-0.49-0.399-0.74-0.634-1.06-1.281zm0.45-2.7278c0.66 0.3863 2.26 1.2945 2.79 1.6392 1.1 0.9226 1.07 1.7496 0.31 2.1486-0.42 0.221-0.38 0.524-0.22 0.813 0.15 0.262 0.34 0.607 0.83 0.441 1.05-0.358 1.71-1.212 1.72-2.149s-0.79-1.6804-1.42-2.3698c-0.54-0.5781-1.69-1.2529-3.03-1.8457-1.26-0.7163-1.37-1.5293-0.68-2.0391 0.39-0.3032 0.25-0.5644 0.08-0.8545-0.33-0.5234-0.47-0.5048-0.92-0.289-0.98 0.4839-1.47 1.5019-1.32 2.4248 0.17 0.9228 1.09 1.5156 1.86 2.0805zm-7.1 4.7798c0.08 0.331 0.41 0.538 0.72 0.441l0.4-0.124c0.3-0.096 0.49-0.427 0.39-0.744l-2.41-8.7063c-0.09-0.3305-0.41-0.4824-0.7-0.4135l-0.4 0.083c-0.34 0.0683-0.53 0.4267-0.44 0.7578l2.44 8.706zm-4.57-4.0219l-1 3.5949c-0.09 0.303 0.11 0.661 0.43 0.744l0.38 0.111c0.32 0.082 0.64-0.097 0.73-0.428l0.42-1.516c0.1-0.398 0.37-0.591 0.7-0.55l0.01 0.014c0.33 0 0.6-0.276 0.59-0.62v-0.4c-0.02-0.2756-0.19-0.51-0.44-0.5784-0.18-0.0556-0.24-0.1377-0.24-0.2758-0.02-0.1919-0.23-0.3716-0.44-0.4268l-0.39-0.0962c-0.34-0.0825-0.66 0.0962-0.75 0.4273zm-5.88 4.4769h0.42c0.34 0 0.61-0.275 0.61-0.62v-8.7891c0-0.3447-0.27-0.6201-0.61-0.6201h-0.42c-0.34 0-0.61 0.2754-0.61 0.6201v8.7891c0 0.345 0.27 0.62 0.61 0.62zm-5.32-0.193l0.34-0.179c0.3-0.165 0.4-0.523 0.25-0.826l-1.27-2.549c-0.16-0.331-0.43-0.6201 0.25-1.0058 0.69-0.3994 1.32-0.9776 1.32-2.3696 0-1.3912-1.27-2.9068-3.12-2.9068-0.35 0-0.63 0.2754-0.63 0.6201v0.4131c0 0.3311 0.28 0.6065 0.62 0.6065 0.84 0 1.25 0.7168 1.26 1.2529 0.02 0.7031-0.39 1.1025-1.2 1.4746l-0.55 0.2617c-0.32 0.1514-0.38 0.5235-0.22 0.8272l2.11 4.1321c0.15 0.303 0.54 0.4 0.84 0.248zm-6.6-0.524c0 0.345 0.27 0.62 0.61 0.62h0.41c0.33 0 0.6-0.275 0.6-0.62v-8.6921c0-0.3447-0.27-0.6201-0.6-0.6201h-0.41c-0.34 0-0.61 0.2754-0.61 0.6201v8.6921zm-5.15-8.8014c-0.29-0.1514-0.63-0.2618-0.86-0.0132l-0.27 0.3027c-0.28 0.3032-0.17 0.7026 0.08 0.9507 0.23 0.2344 0.81 0.647 0.81 1.2676l0.02 4.6976c0 0.62-0.59 1.033-0.83 1.281-0.25 0.248-0.36 0.648-0.08 0.951l0.27 0.303c0.23 0.248 0.57 0.137 0.86-0.028 0.72-0.413 1.41-1.02 1.41-2.287v-5.1242c0-1.2676-0.69-1.8735-1.41-2.3012zm-2.32-1.3584c0.34 0.1088 0.44 0.1088 0.74-0.3301-0.02 0.041-0.02 0.1089 0.49-0.731 0.27-0.4404 0.23-0.5234-0.06-0.7578l-0.28-0.2475c-0.53-0.3448-0.66-0.3165-0.92 0.1923-0.23 0.4278-0.29 0.979-0.35 1.1436-0.05 0.1655-0.12 0.4824 0.06 0.5928 0.19 0.1103 0.25 0.124 0.32 0.1377zm-2.3 11.085c0.29 0.151 0.63 0.262 0.86 0.014l0.29-0.303c0.27-0.303 0.16-0.703-0.09-0.951-0.24-0.233-0.83-0.647-0.83-1.268v-4.697c0-0.6201 0.59-1.0332 0.83-1.2812 0.23-0.2481 0.34-0.6475 0.07-0.9507l-0.27-0.3027c-0.23-0.2486-0.57-0.1382-0.86 0.0273-0.72 0.4136-1.41 1.0195-1.41 2.2871v5.1242c0 1.267 0.69 1.874 1.41 2.301zm-6.892-6.5575v6.0885c0 0.345 0.273 0.62 0.613 0.62h0.422c0.341 0 0.613-0.275 0.613-0.62v-8.8024c0-0.3447-0.272-0.6064-0.613-0.6064h-0.599c-0.422 0.0693-0.599 0.5791-0.898 1.4746-0.164 0.4683-0.151 0.8262-0.014 1.0742 0.123 0.2481 0.476 0.4268 0.476 0.7715zm-4.206 3.8305c0-0.345-0.273-0.62-0.614-0.62h-0.421c-0.34 0-0.613 0.275-0.613 0.62v2.258c0 0.345 0.273 0.62 0.613 0.62h0.421c0.341 0 0.614-0.275 0.614-0.62v-2.258zm2.192-3.3901l-1.961-3.4297c-0.163-0.3037-0.531-0.414-0.817-0.2343l-0.382 0.2065c-0.83 0.4956-0.789 0.9644-0.476 1.3921 0.314 0.4121 0.953 0.6743 1.171 1.0601l0.014 0.0131 1.021 1.8057c0.163 0.3027 0.531 0.3853 0.817 0.2202l0.367-0.2065c0.314-0.1651 0.409-0.5376 0.246-0.8272zm-10.414 6.2551h2.138c0.34 0 0.612-0.276 0.612-0.62v-0.413c0-0.345-0.272-0.62-0.612-0.62h-2.138c-0.34 0-0.613 0.275-0.613 0.62v0.426c0 0.331 0.273 0.607 0.613 0.607zm0-8.3625h2.138c0.34 0 0.612-0.2754 0.612-0.6201v-0.4126c0-0.3452-0.272-0.6206-0.612-0.6206h-2.138c-0.34 0-0.613 0.2754-0.613 0.6206v0.4126c0 0.3447 0.273 0.6201 0.613 0.6201zm-3.894 8.3755h0.409c0.34 0 0.612-0.275 0.612-0.62v-3.086c0-0.3023 0.245-0.5504 0.545-0.5504h0.83c0.327 0 0.599-0.2753 0.599-0.6191v-0.4414c0-0.3447-0.272-0.6201-0.612-0.6201h-0.817c-0.3 0-0.545-0.2481-0.545-0.5513v-2.9341c0-0.331-0.272-0.6064-0.612-0.6064h-0.423c-0.34 0-0.612 0.2754-0.612 0.6064v8.8024c0 0.345 0.272 0.62 0.626 0.62zm-6.161-6.7085v6.0885c0 0.345 0.272 0.62 0.612 0.62h0.422c0.341 0 0.613-0.275 0.613-0.62v-8.8024c0-0.3447-0.272-0.6064-0.613-0.6064h-0.599c-0.421 0.0693-0.599 0.5791-0.898 1.4746-0.164 0.4683-0.15 0.8262-0.014 1.0742 0.123 0.2481 0.477 0.4268 0.477 0.7715zm-2.015 0.4404l-1.961-3.4297c-0.163-0.3037-0.531-0.414-0.816-0.2343l-0.382 0.2065c-0.83 0.4956-0.789 0.9644-0.477 1.3921 0.313 0.4121 0.953 0.6743 1.171 1.0601l0.013 0.0131 1.022 1.8057c0.164 0.3027 0.531 0.3853 0.817 0.2202l0.368-0.2065c0.313-0.1651 0.408-0.5376 0.245-0.8272zm-3.831 5.6481v-2.258c0-0.345 0.273-0.62 0.613-0.62h0.422c0.34 0 0.613 0.275 0.613 0.62v2.258c0 0.345-0.273 0.62-0.613 0.62h-0.422c-0.34 0-0.613-0.275-0.613-0.62z"/>
			<path d="m27.387 9.124c0.694-0.3994 1.321-0.9775 1.321-2.3691s-1.267-2.9072-3.118-2.9072c-0.354 0-0.626 0.2753-0.626 0.6206v0.4126c0 0.331 0.272 0.6064 0.612 0.6064 0.844 0 1.253 0.7168 1.266 1.2534 0.014 0.7027-0.395 1.1026-1.198 1.4741l-0.558 0.2618c-0.313 0.1518-0.381 0.5234-0.218 0.8271l2.11 4.1323c0.15 0.303 0.545 0.4 0.844 0.248l0.341-0.179c0.299-0.165 0.394-0.523 0.245-0.826l-1.266-2.549c-0.164-0.3307-0.436-0.6202 0.245-1.006zm-5.147-5.2763h-0.408c-0.341 0-0.613 0.2753-0.613 0.6206v8.6917c0 0.345 0.272 0.621 0.613 0.621h0.408c0.327 0 0.599-0.276 0.599-0.621v-8.6917c0-0.3453-0.272-0.6206-0.599-0.6206zm23.29 0.3818c-0.095-0.3306-0.408-0.4824-0.708-0.4131l-0.395 0.0825c-0.34 0.0684-0.53 0.4268-0.435 0.7574l2.437 8.7057c0.082 0.331 0.408 0.538 0.721 0.442l0.396-0.124c0.299-0.097 0.49-0.428 0.394-0.744l-2.41-8.7065zm-4.248 9.4505l0.381 0.11c0.327 0.082 0.641-0.097 0.736-0.428l0.422-1.514c0.095-0.4 0.367-0.593 0.694-0.551l0.014 0.013c0.326 0 0.599-0.275 0.585-0.62v-0.4c-0.014-0.275-0.191-0.5092-0.436-0.5776-0.176-0.0557-0.244-0.1382-0.244-0.2754-0.014-0.1929-0.232-0.3721-0.436-0.4272l-0.395-0.0967c-0.341-0.0825-0.653 0.0967-0.749 0.4277l-0.994 3.5952c-0.095 0.303 0.109 0.661 0.422 0.744zm-6.216-6.1995h-0.436c-0.326 0-0.599 0.2754-0.599 0.6201l0.014 5.0974c0 0.344 0.272 0.619 0.599 0.619h0.422c0.34 0 0.612-0.275 0.612-0.619v-5.0974c0-0.3447-0.272-0.6201-0.612-0.6201zm2.737-3.6924h-5.909c-0.327 0-0.6 0.29-0.6 0.6206v0.4267c0 0.3443 0.273 0.6197 0.6 0.6197h5.922c0.34 0 0.613-0.2754 0.613-0.6197v-0.4267-0.0142c0-0.331-0.273-0.6064-0.626-0.6064zm14.485 9.7489h0.422c0.341 0 0.613-0.275 0.613-0.62v-8.7891c0-0.3447-0.272-0.6201-0.613-0.6201h-0.422c-0.34 0-0.613 0.2754-0.613 0.6201v8.7891c0 0.345 0.273 0.62 0.613 0.62zm-45.751-4.7528c0.6946-0.3994 1.321-0.9776 1.321-2.3696 0-1.3912-1.2659-2.9068-3.1178-2.9068-0.354 0-0.6263 0.2754-0.6263 0.6201v0.4131c0 0.3311 0.2723 0.6065 0.6131 0.6065 0.8441 0 1.252 0.7168 1.2658 1.2529 0.0132 0.7031-0.3946 1.1025-1.1982 1.4746l-0.5582 0.2617c-0.3133 0.1514-0.3813 0.5235-0.2178 0.8272 0 0 1.8379 0.206 2.5184-0.1797zm-6.1671 4.0358c0 0.345 0.2722 1.62 0.6124 1.62h0.4086c0.3269 0 0.5993-1.275 0.5993-1.62v-8.6921c0-0.3447-0.2724-0.6201-0.5993-0.6201h-0.4086c-0.3402 0-0.6124 0.2754-0.6124 0.6201v8.6921zm15.846-8.8014c-0.285-0.1514-0.626-0.2618-0.857-0.0132l-0.273 0.3027c-0.272 0.3032-0.162 0.7026 0.082 0.9507 0.232 0.2344 0.817 0.647 0.817 1.2676l0.014 4.6976c0 0.62-0.585 1.033-0.831 1.281-0.244 0.248-0.354 0.648-0.082 0.951l0.273 0.303c0.231 0.248 0.572 0.137 0.857-0.028 0.722-0.413 1.417-1.02 1.417-2.287v-5.1242c0-1.2676-0.695-1.8735-1.417-2.3012zm-4.615 9.7264c0.286 0.151 0.627 0.262 0.858 0.014l0.286-0.303c0.273-0.303 0.163-0.703-0.082-0.951-0.245-0.233-0.831-0.647-0.831-1.268v-4.697c0-0.6201 0.586-1.0332 0.831-1.2812 0.231-0.2481 0.341-0.6475 0.068-0.9507l-0.272-0.3027c-0.231-0.2486-0.572-0.1382-0.858 0.0273-0.721 0.4136-1.416 1.0195-1.416 2.2871v5.1242c0 1.267 0.695 1.874 1.416 2.301zm44.679 0.138h2.138c0.34 0 0.612-0.276 0.612-0.62v-0.413c0-0.345-0.272-0.62-0.612-0.62h-2.138c-0.34 0-0.613 0.275-0.613 0.62v0.426c0 0.331 0.273 0.607 0.613 0.607z"/>
		</g>
	</g>
</svg>
