<svg viewBox="0 0 90 130" style="background-color:#ffffff" xmlns="http://www.w3.org/2000/svg" width="90" height="130"><g><path d="M90 130H0V0h90v130z" fill="#fff100"/><path d="M59.23 110.68c1.202-.683 2.286-1.672 2.286-4.053 0-2.38-2.192-4.972-5.396-4.972-.614 0-1.084.47-1.084 1.06v.707c0 .566.47 1.037 1.06 1.037 1.46 0 2.168 1.225 2.19 2.143.024 1.202-.683 1.886-2.073 2.522l-.965.447c-.542.26-.66.896-.377 1.415l3.653 7.07c.26.518.942.683 1.46.423l.59-.306c.518-.283.682-.895.424-1.414l-2.19-4.36c-.285-.565-.756-1.06.422-1.72zm-8.91-9.025h-.704c-.59 0-1.06.47-1.06 1.06v14.87c0 .59.47 1.06 1.06 1.06h.705c.568 0 1.038-.47 1.038-1.06v-14.87c0-.59-.47-1.06-1.037-1.06zm25.745.754c-.165-.566-.707-.826-1.225-.708l-.683.142c-.59.117-.92.73-.755 1.296l4.22 14.892c.14.566.706.92 1.248.755l.683-.213c.517-.165.848-.73.683-1.272l-4.17-14.893zm-3.205 9.378c-.305-.095-.424-.236-.424-.472-.023-.33-.4-.636-.753-.73L71 110.42c-.59-.14-1.132.166-1.297.732l-1.72 6.15c-.165.518.188 1.13.73 1.272l.66.19c.566.14 1.108-.166 1.272-.732l.73-2.592c.165-.683.637-1.013 1.203-.942l.024.024c.566 0 1.037-.473 1.012-1.06v-.685c-.023-.47-.33-.872-.754-.99zm-32.02-10.133h-.73c-.565 0-1.012.47-1.012 1.06v11.57c0 1.06-1.038 1.768-1.437 2.17-.424.423-.613 1.106-.14 1.6l.446.52c.402.424.99.235 1.462-.047 1.248-.708 2.45-1.72 2.45-3.866v-11.946c0-.59-.447-1.06-1.037-1.06zm-8.905 12.63v-11.57c0-.59-.45-1.06-1.037-1.06h-.732c-.588 0-1.037.47-1.037 1.06v11.947c.023 2.145 1.226 3.158 2.475 3.866.446.282 1.037.47 1.436.046l.473-.52c.47-.493.282-1.176-.118-1.577-.424-.424-1.46-1.13-1.46-2.19zm31.29-33.498c-.165-.565-.706-.825-1.226-.707l-.684.142c-.59.117-.918.73-.754 1.296L64.78 96.41c.142.566.707.92 1.25.755l.683-.213c.518-.165.85-.73.684-1.272l-4.17-14.893zm-7.352 16.165l.66.19c.566.14 1.11-.166 1.273-.732l.73-2.592c.166-.683.636-1.013 1.2-.942l.026.024c.565 0 1.036-.472 1.012-1.06v-.685c-.023-.47-.33-.872-.754-.99-.306-.094-.423-.235-.423-.47-.023-.33-.402-.636-.755-.73l-.683-.166c-.59-.142-1.132.164-1.297.73l-1.72 6.15c-.166.518.188 1.13.73 1.272zM45.114 86.35h-.754c-.566 0-1.038.47-1.038 1.06l.026 8.718c0 .59.47 1.06 1.035 1.06h.73c.59 0 1.06-.47 1.06-1.06v-8.72c0-.588-.47-1.06-1.06-1.06zm4.738-6.317H39.624c-.565 0-1.037.495-1.037 1.06v.73c0 .59.472 1.06 1.038 1.06h10.25c.588 0 1.06-.47 1.06-1.06v-.753c0-.566-.472-1.037-1.083-1.037zM30.18 97.188h.73c.588 0 1.06-.47 1.06-1.06V81.094c0-.59-.472-1.06-1.06-1.06h-.73c-.59 0-1.062.47-1.062 1.06v15.034c0 .59.47 1.06 1.06 1.06zm4.043-37.29l4.217 14.89c.142.567.707.92 1.25.756l.683-.213c.518-.164.848-.73.683-1.27l-4.172-14.894c-.164-.565-.706-.825-1.224-.707l-.684.14c-.59.118-.918.73-.753 1.297zm-.543 8.647c-.306-.095-.425-.236-.425-.472-.023-.33-.4-.636-.753-.73l-.684-.165c-.588-.14-1.13.165-1.296.73l-1.72 6.15c-.165.52.19 1.132.73 1.273l.66.19c.565.14 1.108-.165 1.273-.73l.73-2.593c.165-.683.636-1.013 1.203-.942l.022.024c.566 0 1.038-.474 1.015-1.062v-.684c-.024-.47-.332-.872-.755-.99zm-16.775 32.992c-.59 0-1.06.47-1.06 1.06v.73c0 .566.47 1.038 1.06 1.038 1.438 0 2.498 1.508 2.498 2.497v6.458c0 .99-1.06 2.498-2.498 2.498-.59 0-1.06.47-1.06 1.037v.73c0 .59.47 1.06 1.06 1.06 3.205 0 5.538-2.663 5.538-5.02v-7.068c0-2.357-2.333-5.02-5.538-5.02zm-5.678 0l-.73.025c-.614.023-1.084.47-1.084 1.037v14.984c0 .565.47 1.036 1.084 1.06h.73c.588.024 1.083-.47 1.083-1.06V102.6c0-.59-.495-1.085-1.083-1.062zm5.678-21.457c-.59 0-1.06.47-1.06 1.06v.73c0 .566.47 1.038 1.06 1.038 1.438 0 2.498 1.508 2.498 2.497v6.458c0 .99-1.06 2.498-2.498 2.498-.59 0-1.06.472-1.06 1.038v.73c0 .59.47 1.06 1.06 1.06 3.205 0 5.538-2.663 5.538-5.02V85.1c0-2.357-2.333-5.02-5.538-5.02zm-5.678 0l-.73.025c-.614.023-1.084.47-1.084 1.037v14.985c0 .565.47 1.036 1.084 1.06h.73c.588.023 1.083-.47 1.083-1.06V81.142c0-.59-.495-1.084-1.083-1.06zm5.678-21.67c-.59 0-1.06.472-1.06 1.06v.73c0 .567.47 1.038 1.06 1.038 1.438 0 2.498 1.51 2.498 2.498v6.458c0 .99-1.06 2.497-2.498 2.497-.59 0-1.06.473-1.06 1.038v.73c0 .59.47 1.06 1.06 1.06 3.205 0 5.538-2.662 5.538-5.02v-7.067c0-2.356-2.333-5.02-5.538-5.02zm-5.678.002l-.73.024c-.614.023-1.084.47-1.084 1.037v14.985c0 .565.47 1.036 1.084 1.06h.73c.588.023 1.083-.47 1.083-1.06V59.473c0-.59-.495-1.084-1.083-1.06zm55.9-17.357c.212.4.99.542 1.438.19l.565-.45c.425-.306.45-.776.164-1.436-.33-.78-.964-1.51-1.813-2.193-.446-.377-1.013-.52-1.46-.165l-.542.4c-.472.354-.542 1.014-.188 1.462.848.66 1.27 1.084 1.837 2.19zm-7.61 8.602c-.213-.4-.99-.52-1.438-.19l-.543.425c-.472.353-.472.8-.188 1.46.328.778.987 1.51 1.835 2.192.448.378.99.566 1.438.212l.543-.447c.447-.355.54-1.015.19-1.462-.85-.683-1.275-1.084-1.84-2.19zm.776-4.666c1.154.66 3.912 2.215 4.83 2.805 1.91 1.578 1.862 2.992.542 3.675-.73.378-.66.896-.375 1.39.258.45.588 1.038 1.437.755 1.814-.612 2.945-2.073 2.968-3.676.023-1.604-1.365-2.876-2.45-4.054-.942-.99-2.92-2.144-5.254-3.158-2.17-1.225-2.357-2.616-1.178-3.488.684-.518.447-.965.142-1.46-.566-.896-.816-.865-1.58-.495-1.707.827-2.544 2.568-2.285 4.147.282 1.58 1.885 2.592 3.203 3.56zm-12.278 8.177c.142.566.707.92 1.25.755l.68-.213c.52-.166.85-.732.685-1.273l-4.17-14.893c-.166-.565-.708-.825-1.226-.707l-.683.142c-.59.116-.92.73-.754 1.295l4.22 14.892zm-7.917-6.88l-1.72 6.15c-.166.518.187 1.13.73 1.272l.66.188c.566.14 1.106-.165 1.272-.73l.73-2.593c.165-.683.637-1.013 1.202-.942l.024.024c.566 0 1.037-.472 1.012-1.06v-.685c-.023-.47-.328-.872-.753-.99-.306-.094-.424-.235-.424-.47-.023-.33-.4-.637-.753-.73l-.683-.166c-.59-.14-1.132.165-1.296.73zM29.92 53.945h.732c.59 0 1.06-.47 1.06-1.06V37.85c0-.59-.47-1.06-1.06-1.06h-.73c-.59 0-1.06.47-1.06 1.06v15.035c0 .59.47 1.06 1.06 1.06zm-9.197-.33l.59-.306c.518-.284.683-.896.423-1.415l-2.192-4.36c-.282-.565-.753-1.06.424-1.72 1.202-.683 2.286-1.672 2.286-4.053 0-2.38-2.19-4.972-5.396-4.972-.612 0-1.084.47-1.084 1.06v.707c0 .566.472 1.037 1.06 1.037 1.462 0 2.168 1.226 2.192 2.144.023 1.202-.683 1.886-2.073 2.522l-.967.447c-.542.26-.66.896-.377 1.415l3.652 7.07c.258.518.944.683 1.46.423zm-11.43-.896c0 .59.473 1.06 1.062 1.06h.707c.565 0 1.037-.47 1.037-1.06V37.85c0-.59-.473-1.06-1.038-1.06h-.707c-.59 0-1.06.47-1.06 1.06v14.87zM78.26 15.426c-.494-.26-1.085-.448-1.485-.023l-.47.518c-.473.52-.284 1.202.14 1.626.4.4 1.413 1.107 1.413 2.168l.024 8.035c0 1.062-1.012 1.77-1.437 2.193-.423.424-.612 1.108-.14 1.626l.47.517c.4.425.99.236 1.484-.046 1.248-.707 2.45-1.744 2.45-3.912v-8.765c0-2.168-1.202-3.205-2.45-3.936zm-4.007-2.324c.582.186.752.186 1.28-.565-.035.07-.036.187.84-1.25.473-.753.402-.895-.093-1.296l-.494-.424c-.92-.59-1.132-.54-1.58.33-.4.73-.517 1.674-.613 1.956-.093.283-.212.825.096 1.014.328.188.447.212.563.235zm-3.983 18.96c.497.26 1.086.45 1.485.024l.496-.518c.473-.52.284-1.203-.14-1.627-.424-.4-1.44-1.107-1.44-2.168V19.74c0-1.06 1.016-1.768 1.44-2.192.4-.424.59-1.107.118-1.626l-.473-.518c-.4-.425-.988-.236-1.484.047-1.248.708-2.45 1.745-2.45 3.913v8.765c0 2.168 1.203 3.205 2.45 3.936zM58.34 20.848v10.416c0 .59.473 1.06 1.062 1.06h.73c.59 0 1.06-.47 1.06-1.06V16.205c0-.59-.47-1.037-1.06-1.037h-1.036c-.73.118-1.037.99-1.555 2.522-.283.8-.26 1.413-.022 1.838.212.424.823.73.823 1.32zm-7.28 6.55c0-.588-.472-1.06-1.06-1.06h-.73c-.59 0-1.062.472-1.062 1.06v3.866c0 .59.473 1.06 1.062 1.06H50c.588 0 1.06-.47 1.06-1.06v-3.865zm3.794-5.796l-3.394-5.866c-.28-.52-.92-.708-1.414-.4l-.66.352c-1.436.848-1.366 1.65-.824 2.38.543.707 1.65 1.155 2.026 1.815l.024.024 1.767 3.088c.283.518.92.66 1.413.377l.637-.355c.543-.282.707-.92.425-1.414zM36.832 32.3h3.7c.59 0 1.06-.472 1.06-1.06v-.707c0-.59-.47-1.06-1.06-1.06h-3.7c-.588 0-1.06.47-1.06 1.06v.73c0 .565.472 1.037 1.06 1.037h.002zm.002-14.305h3.698c.59 0 1.06-.47 1.06-1.06v-.706c0-.59-.47-1.062-1.06-1.062h-3.7c-.588 0-1.06.47-1.06 1.06v.707c0 .59.472 1.06 1.06 1.06h.002zm-6.74 14.328h.706c.59 0 1.06-.47 1.06-1.06v-5.28c0-.517.425-.94.943-.94h1.438c.567 0 1.037-.473 1.037-1.06v-.756c0-.59-.47-1.06-1.06-1.06H32.8c-.517 0-.942-.424-.942-.943v-5.02c0-.565-.47-1.036-1.06-1.036h-.73c-.59 0-1.06.47-1.06 1.037v15.058c0 .59.47 1.06 1.083 1.06zM19.427 20.847v10.416c0 .59.47 1.06 1.06 1.06h.73c.59 0 1.06-.47 1.06-1.06V16.205c0-.59-.47-1.037-1.06-1.037h-1.036c-.73.118-1.037.99-1.555 2.522-.284.8-.26 1.413-.024 1.838.21.424.825.73.825 1.32zm-3.489.754l-3.394-5.866c-.282-.52-.92-.708-1.413-.4l-.66.352c-1.437.848-1.367 1.65-.825 2.38.542.707 1.65 1.155 2.026 1.815l.023.024 1.768 3.088c.284.518.92.66 1.414.377l.636-.355c.542-.282.707-.92.424-1.414zm-6.63 9.663v-3.865c0-.59.472-1.06 1.062-1.06h.73c.588 0 1.06.47 1.06 1.06v3.865c0 .59-.472 1.06-1.06 1.06h-.73c-.59 0-1.062-.47-1.062-1.06z"/></g></svg>